<svg width="322" height="1002" viewBox="0 0 322 1002" fill="none" xmlns="http://www.w3.org/2000/svg">
<rect x="1" y="1" width="320" height="1000" rx="20" fill="#1D2023"/>
<rect x="0.5" y="0.5" width="321" height="1001" rx="20.5" stroke="white" stroke-opacity="0.12"/>
<rect width="48" height="48" transform="translate(33 41)" fill="white"/>
<path d="M98.8398 57.1562C101.594 57.1562 103.635 58.9336 103.625 61.4336C103.635 63.582 102.131 65.1934 99.9531 65.5938V68.1914C101.428 68.1328 102.912 68.0254 104.289 67.8398L104.445 69.4414C100.744 70.1055 96.6816 70.1152 93.6641 70.1055L93.3711 68.3086C94.6699 68.3086 96.1836 68.3086 97.7656 68.2695V65.5938C95.5781 65.2129 94.0547 63.5918 94.0547 61.4336C94.0547 58.9336 96.0957 57.1562 98.8398 57.1562ZM98.8398 59.0312C97.3164 59.0312 96.1934 59.9492 96.1836 61.4336C96.1934 62.918 97.3262 63.8262 98.8398 63.8164C100.363 63.8262 101.496 62.918 101.496 61.4336C101.496 59.9492 100.373 59.0312 98.8398 59.0312ZM107.473 56.082V63.1328H110.012V64.9492H107.473V73.7188H105.305V56.082H107.473ZM126.145 64.5391V66.2773H110.052V64.5391H116.985V63.1523C113.733 62.9375 111.721 61.7266 111.731 59.8125C111.721 57.6934 114.202 56.4043 118.098 56.4141C121.995 56.4043 124.475 57.6934 124.466 59.8125C124.475 61.7266 122.444 62.9473 119.173 63.1523V64.5391H126.145ZM118.079 67.3125C121.907 67.3125 124.212 68.4648 124.212 70.5156C124.212 72.5664 121.907 73.7188 118.079 73.7188C114.241 73.7188 111.927 72.5664 111.927 70.5156C111.927 68.4648 114.241 67.3125 118.079 67.3125ZM118.079 68.9922C115.54 68.9922 114.143 69.5195 114.153 70.5156C114.143 71.5215 115.53 72.0391 118.079 72.0391C120.618 72.0391 121.995 71.5215 122.005 70.5156C121.995 69.5195 120.598 68.9922 118.079 68.9922ZM118.098 58.0938C115.511 58.1035 113.997 58.6895 113.997 59.8125C113.997 60.916 115.511 61.4922 118.098 61.4922C120.686 61.4922 122.2 60.916 122.2 59.8125C122.2 58.6895 120.686 58.1035 118.098 58.0938ZM141.224 56.082V73.7578H139.037V56.082H141.224ZM131.713 57.3516C134.398 57.3613 136.332 59.793 136.341 63.6016C136.332 67.4199 134.398 69.8516 131.713 69.8516C129.056 69.8516 127.103 67.4199 127.103 63.6016C127.103 59.793 129.056 57.3613 131.713 57.3516ZM131.713 59.3438C130.228 59.3535 129.222 60.9062 129.213 63.6016C129.222 66.3066 130.228 67.8691 131.713 67.8789C133.207 67.8691 134.222 66.3066 134.232 63.6016C134.222 60.9062 133.207 59.3535 131.713 59.3438ZM156.948 56.1016V60.3008H159.428V62.1172H156.948V66.668H154.76V56.1016H156.948ZM151.772 57.1562V62.2539H145.893V64.1094C148.93 64.0898 150.961 63.9824 153.354 63.5625L153.569 65.3398C150.942 65.7988 148.588 65.8965 145.17 65.8867H143.725V60.6133H149.604V58.9141H143.705V57.1562H151.772ZM151.186 67.1172C154.848 67.127 157.133 68.3379 157.143 70.418C157.133 72.5078 154.858 73.7188 151.186 73.7188C147.495 73.7188 145.229 72.5078 145.229 70.418C145.229 68.3379 147.504 67.127 151.186 67.1172ZM151.186 68.7969C148.735 68.8066 147.377 69.3535 147.377 70.418C147.377 71.4922 148.725 72.0391 151.186 72.0391C153.637 72.0391 154.985 71.4922 154.995 70.418C154.985 69.3535 153.618 68.8066 151.186 68.7969ZM168.512 57.0586C169.947 57.0684 171.197 57.5957 172.047 58.4844H176.207V56.1016H178.414V66.4531H176.207V64.207H172.027C171.188 65.0859 169.938 65.6035 168.512 65.6133C165.855 65.6035 163.854 63.8262 163.863 61.3359C163.854 58.8555 165.855 57.0684 168.512 57.0586ZM168.512 58.9141C167.037 58.9238 165.934 59.8613 165.934 61.3359C165.934 62.8105 167.037 63.748 168.512 63.7578C169.986 63.748 171.07 62.8105 171.07 61.3359C171.07 59.8613 169.986 58.9238 168.512 58.9141ZM172.457 66.8438C176.158 66.8438 178.482 68.1133 178.473 70.2617C178.482 72.4492 176.158 73.7188 172.457 73.7188C168.736 73.7188 166.412 72.4492 166.422 70.2617C166.412 68.1133 168.736 66.8438 172.457 66.8438ZM172.457 68.543C169.967 68.543 168.58 69.1387 168.59 70.2617C168.58 71.4141 169.977 72.0098 172.457 72C174.918 72.0098 176.314 71.4141 176.324 70.2617C176.314 69.1387 174.918 68.543 172.457 68.543ZM173.023 62.4492H176.207V60.2422H173.023C173.111 60.584 173.16 60.9551 173.16 61.3359C173.16 61.7266 173.111 62.0977 173.023 62.4492ZM184.919 57.3516C187.311 57.3613 189.089 59.3535 189.411 62.5664H192.731V56.082H194.919V73.7578H192.731V64.3438H189.43C189.196 67.7324 187.38 69.8516 184.919 69.8516C182.292 69.8516 180.397 67.4199 180.407 63.6016C180.397 59.793 182.292 57.3613 184.919 57.3516ZM184.919 59.3438C183.473 59.3535 182.487 60.9062 182.497 63.6016C182.487 66.3066 183.473 67.8691 184.919 67.8789C186.393 67.8691 187.37 66.3066 187.38 63.6016C187.37 60.9062 186.393 59.3535 184.919 59.3438ZM205.193 58.875V60.6328H196.56V58.875H199.822V56.5703H202.009V58.875H205.193ZM200.896 61.5703C203.152 61.5605 204.773 63.2695 204.783 65.6914C204.773 68.123 203.152 69.8223 200.896 69.8125C198.67 69.8223 197.039 68.123 197.048 65.6914C197.039 63.2695 198.67 61.5605 200.896 61.5703ZM200.896 63.3867C199.783 63.3965 198.992 64.2852 198.982 65.6914C198.992 67.1172 199.783 67.9961 200.896 67.9961C202.019 67.9961 202.83 67.1172 202.83 65.6914C202.83 64.2852 202.019 63.3965 200.896 63.3867ZM211.795 56.082V73.7188H209.705V65.125H207.986V72.9375H205.935V56.4336H207.986V63.3477H209.705V56.082H211.795ZM229.198 69.793V71.6094H213.084V69.793H216.776V65.3203C215.379 64.5195 214.53 63.2598 214.53 61.707C214.53 58.875 217.313 57.0488 221.112 57.0391C224.93 57.0488 227.694 58.875 227.694 61.707C227.694 63.2598 226.854 64.5098 225.467 65.3203V69.793H229.198ZM221.112 58.7578C218.495 58.7676 216.688 59.8711 216.678 61.707C216.688 63.5332 218.495 64.6465 221.112 64.6562C223.739 64.6465 225.545 63.5332 225.545 61.707C225.545 59.8711 223.739 58.7676 221.112 58.7578ZM218.963 69.793H223.28V66.1406C222.606 66.2871 221.883 66.3555 221.112 66.3555C220.35 66.3555 219.627 66.2871 218.963 66.1406V69.793Z" fill="white"/>
<path d="M277.75 58.25V71.75V58.25Z" fill="white"/>
<path d="M277.75 58.25V71.75M274.75 58.25H285.25C286.078 58.25 286.75 58.9216 286.75 59.75V70.25C286.75 71.0784 286.078 71.75 285.25 71.75H274.75C273.922 71.75 273.25 71.0784 273.25 70.25V59.75C273.25 58.9216 273.922 58.25 274.75 58.25Z" stroke="white" stroke-width="1.5" stroke-linecap="round" stroke-linejoin="round"/>
<line x1="1" y1="108.5" x2="321" y2="108.5" stroke="#2F3337"/>
<path d="M44.5 194.5H44.5117H44.5Z" fill="#ACB6B9"/>
<path d="M44.5 201.5H44.5117H44.5Z" fill="#ACB6B9"/>
<path d="M44.5 187.5H44.5117H44.5Z" fill="#ACB6B9"/>
<path d="M50.3333 194.5H65.5H50.3333Z" fill="#ACB6B9"/>
<path d="M50.3333 201.5H65.5H50.3333Z" fill="#ACB6B9"/>
<path d="M50.3333 187.5H65.5H50.3333Z" fill="#ACB6B9"/>
<path d="M44.5 194.5H44.5117M44.5 201.5H44.5117M44.5 187.5H44.5117M50.3333 194.5H65.5M50.3333 201.5H65.5M50.3333 187.5H65.5" stroke="#ACB6B9" stroke-width="2" stroke-linecap="round" stroke-linejoin="round"/>
<path d="M98.1328 184.062V190.297H101.273V191.82H98.1328V199.133H96.2812V184.062H98.1328ZM92.1094 185.867V187.391H84.6562V193.906C88.8633 193.918 91.2188 193.777 94.0312 193.227L94.2422 194.727C91.3594 195.312 88.9219 195.465 84.4453 195.453H82.8281V185.867H92.1094ZM99.0938 202.906V204.43H85.0781V197.633H86.9297V202.906H99.0938ZM107.204 185.68C110.052 185.691 112.114 188.152 112.407 192.031H117.071V184.062H118.899V204.922H117.071V193.531H112.431C112.22 197.609 110.122 200.188 107.204 200.188C104.157 200.188 102.001 197.352 102.001 192.922C102.001 188.527 104.157 185.691 107.204 185.68ZM107.204 187.344C105.165 187.344 103.747 189.559 103.759 192.922C103.747 196.332 105.165 198.547 107.204 198.547C109.267 198.547 110.685 196.332 110.696 192.922C110.685 189.559 109.267 187.344 107.204 187.344ZM128.463 188C128.463 190.73 130.502 193.168 133.572 194.188L132.682 195.617C130.291 194.832 128.475 193.191 127.572 191.094C126.682 193.496 124.771 195.359 122.275 196.25L121.338 194.773C124.467 193.695 126.623 191.012 126.635 188V187.133H121.9V185.609H133.127V187.133H128.463V188ZM137.697 184.086V189.383H140.814V190.93H137.697V196.648H135.846V184.086H137.697ZM131.018 197.211C135.271 197.211 137.885 198.605 137.885 201.008C137.885 203.434 135.283 204.852 131.018 204.852C126.728 204.852 124.115 203.434 124.127 201.008C124.115 198.605 126.74 197.211 131.018 197.211ZM131.018 198.688C127.865 198.688 125.92 199.543 125.932 201.008C125.92 202.508 127.853 203.387 131.018 203.375C134.158 203.387 136.08 202.508 136.08 201.008C136.08 199.543 134.146 198.688 131.018 198.688Z" fill="#ACB6B9"/>
<path d="M51.6668 272.667V273.333V272.667Z" fill="white"/>
<path d="M62.3334 272.667V273.333V272.667Z" fill="white"/>
<path d="M56.0001 275.667H58.0001L57.0001 276.667L56.0001 275.667Z" fill="white"/>
<path d="M51.6668 272.667V273.333M62.3334 272.667V273.333M57.0001 260.667C57.8934 260.667 58.8001 260.787 59.6668 261.013C62.0401 258.347 66.3734 257.227 68.2268 258C70.0934 258.773 67.6668 267.333 67.6668 267.333C68.4268 268.76 69.0001 270.32 69.0001 271.92C69.0001 277.867 63.6268 282 57.0001 282C50.3734 282 45.0001 278 45.0001 271.92C45.0001 270.253 45.6668 268.72 46.3334 267.333C46.3334 267.333 43.8134 258.773 45.6668 258C47.5201 257.227 51.9601 258.307 54.3334 260.973C55.2081 260.772 56.1026 260.669 57.0001 260.667ZM56.0001 275.667H58.0001L57.0001 276.667L56.0001 275.667Z" stroke="white" stroke-width="2" stroke-linecap="round" stroke-linejoin="round"/>
<path d="M106.875 257.824V274.613H104.387V257.824H106.875ZM102.254 258.344V272.371H99.793V266.629H96.8672V264.496H99.793V258.344H102.254ZM97.6328 259.848V261.98H95.6367V269.09C96.5254 269.021 97.373 268.939 98.1523 268.844L98.2617 270.785C94.3652 271.482 89.2109 271.551 86.0391 271.551L85.7656 269.391L88.1172 269.363V261.98H86.1758V259.848H97.6328ZM99.875 274.23C99.8613 277.102 103.525 279.59 108.16 280.191L107.203 282.215C103.43 281.668 100.107 279.959 98.5625 277.43C97.0176 279.945 93.7227 281.668 89.9219 282.215L88.9648 280.191C93.6133 279.59 97.25 277.102 97.25 274.23V273.492H99.875V274.23ZM90.5234 269.336C91.4121 269.309 92.3418 269.281 93.2578 269.227V261.98H90.5234V269.336ZM117.431 261.734C117.444 264.934 119.673 267.914 123.31 269.145L121.942 271.168C119.249 270.225 117.253 268.311 116.2 265.891C115.12 268.639 113.028 270.799 110.157 271.879L108.763 269.801C112.618 268.434 114.819 265.139 114.806 261.543V259.109H117.431V261.734ZM128.204 257.824V263.949H131.759V266.137H128.204V272.562H125.607V257.824H128.204ZM120.302 273.191C125.36 273.191 128.464 274.873 128.478 277.758C128.464 280.602 125.36 282.283 120.302 282.27C115.216 282.283 112.099 280.602 112.099 277.758C112.099 274.873 115.23 273.191 120.302 273.191ZM120.302 275.27C116.775 275.256 114.683 276.131 114.669 277.758C114.683 279.344 116.761 280.219 120.302 280.219C123.829 280.219 125.907 279.344 125.907 277.758C125.907 276.131 123.816 275.256 120.302 275.27ZM152.487 257.824V272.07H149.834V265.973H145.295V263.812H149.834V257.824H152.487ZM152.487 273.246V281.996H136.326V273.246H152.487ZM138.897 275.297V279.918H149.916V275.297H138.897ZM140.811 261.98C140.824 265.043 143.039 268.092 146.717 269.363L145.405 271.441C142.643 270.457 140.619 268.475 139.553 266.055C138.487 268.762 136.326 270.936 133.401 271.961L132.061 269.91C135.848 268.57 138.199 265.344 138.186 261.98V261.406H132.854V259.301H146.061V261.406H140.811V261.98Z" fill="white"/>
<path d="M1 250C5.41828 250 9 253.582 9 258V282C9 286.418 5.41828 290 1 290V250Z" fill="white"/>
<path d="M52.2827 336.325C52.347 335.649 52.6611 335.021 53.1637 334.564C53.6662 334.107 54.3211 333.854 55.0005 333.854C55.6798 333.854 56.3347 334.107 56.8372 334.564C57.3398 335.021 57.6539 335.649 57.7182 336.325C57.7568 336.762 57.9002 337.183 58.136 337.553C58.3719 337.923 58.6934 338.23 59.0732 338.449C59.4531 338.668 59.8802 338.793 60.3184 338.812C60.7565 338.831 61.1928 338.745 61.5904 338.559C62.2077 338.279 62.9072 338.239 63.5527 338.446C64.1983 338.653 64.7437 339.092 65.0828 339.679C65.4219 340.266 65.5305 340.959 65.3875 341.621C65.2444 342.284 64.8598 342.87 64.3087 343.265C63.9498 343.516 63.6569 343.851 63.4546 344.24C63.2523 344.629 63.1468 345.061 63.1468 345.499C63.1468 345.938 63.2523 346.37 63.4546 346.759C63.6569 347.148 63.9498 347.482 64.3087 347.734C64.8598 348.129 65.2444 348.715 65.3875 349.377C65.5305 350.04 65.4219 350.732 65.0828 351.319C64.7437 351.906 64.1983 352.346 63.5527 352.553C62.9072 352.76 62.2077 352.719 61.5904 352.439C61.1928 352.254 60.7565 352.167 60.3184 352.186C59.8802 352.206 59.4531 352.33 59.0732 352.549C58.6934 352.768 58.3719 353.076 58.136 353.446C57.9002 353.815 57.7568 354.236 57.7182 354.673C57.6539 355.35 57.3398 355.978 56.8372 356.435C56.3347 356.892 55.6798 357.145 55.0005 357.145C54.3211 357.145 53.6662 356.892 53.1637 356.435C52.6611 355.978 52.347 355.35 52.2827 354.673C52.2441 354.236 52.1008 353.815 51.8649 353.445C51.6289 353.075 51.3073 352.768 50.9273 352.549C50.5473 352.329 50.12 352.205 49.6817 352.186C49.2434 352.167 48.807 352.254 48.4094 352.439C47.7921 352.719 47.0926 352.76 46.447 352.553C45.8015 352.346 45.2561 351.906 44.9169 351.319C44.5778 350.732 44.4692 350.04 44.6123 349.377C44.7554 348.715 45.1399 348.129 45.691 347.734C46.0499 347.482 46.3429 347.148 46.5451 346.759C46.7474 346.37 46.853 345.938 46.853 345.499C46.853 345.061 46.7474 344.629 46.5451 344.24C46.3429 343.851 46.0499 343.516 45.691 343.265C45.1407 342.87 44.7568 342.284 44.6141 341.622C44.4713 340.96 44.5799 340.268 44.9187 339.681C45.2575 339.095 45.8022 338.655 46.4471 338.448C47.092 338.24 47.791 338.28 48.4082 338.559C48.8058 338.745 49.2421 338.831 49.6802 338.812C50.1184 338.793 50.5455 338.668 50.9253 338.449C51.3052 338.23 51.6267 337.923 51.8625 337.553C52.0984 337.183 52.2417 336.762 52.2804 336.325M58.4999 345.5C58.4999 347.433 56.9329 349 54.9999 349C53.0669 349 51.4999 347.433 51.4999 345.5C51.4999 343.567 53.0669 342 54.9999 342C56.9329 342 58.4999 343.567 58.4999 345.5Z" stroke="#ACB6B9" stroke-width="2" stroke-linecap="round" stroke-linejoin="round"/>
<path d="M99.1172 335.086V345.82H97.2422V340.406H92.6484V338.883H97.2422V335.086H99.1172ZM99.1172 346.898V351.844H87.4688V354.117H99.9141V355.617H85.6641V350.461H97.2891V348.375H85.6172V346.898H99.1172ZM88.9219 337.711C88.9102 340.43 91.0781 342.949 94.1016 343.945L93.1406 345.375C90.8203 344.555 88.9805 342.902 88.0781 340.805C87.1758 343.16 85.2656 344.988 82.8047 345.867L81.8438 344.414C84.9609 343.348 87.1172 340.734 87.1172 337.711V335.719H88.9219V337.711ZM118.899 335.086V347.484H117.024V342.023H112.829V340.477H117.024V335.086H118.899ZM111.985 348.117C116.298 348.129 118.97 349.57 118.97 352.008C118.97 354.457 116.298 355.875 111.985 355.875C107.649 355.875 104.989 354.457 105.001 352.008C104.989 349.57 107.649 348.129 111.985 348.117ZM111.985 349.57C108.774 349.582 106.817 350.484 106.829 352.008C106.817 353.52 108.774 354.434 111.985 354.422C115.185 354.434 117.142 353.52 117.142 352.008C117.142 350.484 115.173 349.582 111.985 349.57ZM108.868 338.859C108.856 341.566 110.954 344.18 114.001 345.234L113.04 346.688C110.696 345.844 108.892 344.109 108.001 341.953C107.087 344.402 105.153 346.336 102.657 347.273L101.72 345.797C104.802 344.684 107.017 341.883 107.017 338.883V338.133H102.306V336.609H113.509V338.133H108.868V338.859Z" fill="#ACB6B9"/>
<rect x="31.5" y="913.5" width="259" height="47" rx="7.5" stroke="white" stroke-opacity="0.12"/>
<path d="M129.082 942.145V943.414H113.203V942.145H120.332V938.863H115.195V933.512H125.586V930.777H115.156V929.527H127.09V934.762H116.699V937.613H127.5V938.863H121.875V942.145H129.082ZM143.38 930.074V931.793C143.37 934.01 143.37 936.49 142.716 940.25L141.173 940.074C141.866 936.539 141.866 933.941 141.876 931.793V931.344H131.427V930.074H143.38ZM145.509 941.754V943.043H129.688V941.754H145.509ZM150.822 929.566C153.38 929.576 155.207 931.939 155.216 935.602C155.207 939.293 153.38 941.656 150.822 941.656C148.254 941.656 146.437 939.293 146.447 935.602C146.437 931.939 148.254 929.576 150.822 929.566ZM150.822 930.953C149.084 930.953 147.902 932.799 147.912 935.602C147.902 938.443 149.084 940.289 150.822 940.289C152.541 940.289 153.732 938.443 153.732 935.602C153.732 932.799 152.541 930.953 150.822 930.953ZM159.611 928.238V935.172H162.502V936.48H159.611V945.582H158.068V928.238H159.611ZM178.518 936.168V937.438H171.291V939.352H169.787V937.438H162.659V936.168H178.518ZM171.33 940.719C171.321 942.633 174.123 944.01 177.248 944.312L176.76 945.504C174.045 945.191 171.565 944.166 170.53 942.496C169.485 944.146 167.024 945.191 164.319 945.504L163.811 944.312C166.916 944.01 169.739 942.594 169.748 940.719V940.172H171.33V940.719ZM170.549 928.492C174.358 928.492 176.702 929.654 176.702 931.676C176.702 933.688 174.348 934.85 170.549 934.84C166.76 934.85 164.407 933.688 164.416 931.676C164.407 929.654 166.75 928.492 170.549 928.492ZM170.549 929.684C167.737 929.684 165.989 930.416 165.998 931.676C165.989 932.916 167.737 933.648 170.549 933.648C173.371 933.648 175.12 932.916 175.12 931.676C175.12 930.416 173.371 929.684 170.549 929.684Z" fill="#ACB6B9"/>
<path d="M203.5 940.75L207.25 937M207.25 937L203.5 933.25M207.25 937H198.25M198.25 943.75H195.25C194.852 943.75 194.471 943.592 194.189 943.311C193.908 943.029 193.75 942.648 193.75 942.25V931.75C193.75 931.352 193.908 930.971 194.189 930.689C194.471 930.408 194.852 930.25 195.25 930.25H198.25" stroke="#ACB6B9" stroke-width="1.5" stroke-linecap="round" stroke-linejoin="round"/>
<rect x="31" y="837" width="260" height="64" rx="12" fill="#17191C"/>
<rect x="31.5" y="837.5" width="259" height="63" rx="11.5" stroke="white" stroke-opacity="0.08"/>
<g opacity="0.64">
<g clip-path="url(#clip0_65_330)">
<rect x="51" y="849" width="40" height="40" rx="20" fill="#ACB6B9"/>
<g opacity="0.64">
<rect x="52.667" y="874" width="35.8333" height="35.8333" rx="17.9167" fill="#1D2023"/>
</g>
<g opacity="0.64">
<rect x="63.5" y="857.333" width="15" height="15" rx="7.5" fill="#1D2023"/>
</g>
</g>
</g>
<path d="M104.879 861.254C107.604 861.264 109.586 862.982 109.586 865.434C109.586 867.592 108.053 869.164 105.836 869.516V872.309C107.379 872.23 108.932 872.113 110.367 871.918L110.523 873.305C106.822 873.949 102.74 873.969 99.7031 873.969L99.4297 872.426C100.768 872.426 102.33 872.416 103.961 872.367V869.516C101.725 869.184 100.172 867.602 100.172 865.434C100.172 862.982 102.164 861.264 104.879 861.254ZM104.879 862.855C103.219 862.855 101.988 863.871 101.988 865.434C101.988 866.996 103.229 868.002 104.879 868.012C106.539 868.002 107.779 866.996 107.77 865.434C107.779 863.871 106.549 862.855 104.879 862.855ZM113.297 860.16V867.27H115.973V868.832H113.297V877.641H111.441V860.16H113.297ZM132.067 868.656V870.16H116.11V868.656H123.161V867.133C119.87 866.947 117.829 865.746 117.829 863.832C117.829 861.752 120.251 860.502 124.079 860.492C127.936 860.502 130.348 861.752 130.348 863.832C130.348 865.746 128.317 866.957 124.997 867.133V868.656H132.067ZM124.079 871.352C127.858 871.342 130.143 872.465 130.134 874.496C130.143 876.498 127.858 877.641 124.079 877.641C120.29 877.641 118.005 876.498 118.005 874.496C118.005 872.465 120.29 871.342 124.079 871.352ZM124.079 872.777C121.432 872.777 119.889 873.393 119.899 874.496C119.889 875.59 121.423 876.195 124.079 876.195C126.735 876.195 128.259 875.59 128.259 874.496C128.259 873.393 126.716 872.777 124.079 872.777ZM124.079 861.957C121.393 861.947 119.763 862.621 119.763 863.832C119.763 865.033 121.393 865.697 124.079 865.707C126.794 865.697 128.425 865.033 128.434 863.832C128.425 862.621 126.794 861.947 124.079 861.957ZM148.904 862.777V864.32H146.775V866.664H148.904V868.207H146.775V870.883H144.92V860.16H146.775V862.777H148.904ZM136.873 863.441C136.882 864.74 137.185 866.605 138.377 867.914C139.539 866.635 139.841 864.799 139.841 863.441V862.953H138.728V861.449H143.65V862.953H141.619V863.441C141.619 865.238 142.361 867.465 144.373 868.5L143.357 869.867C142.048 869.164 141.218 867.963 140.759 866.605C140.369 867.973 139.656 869.262 138.357 870.023C137.088 869.252 136.365 867.963 135.974 866.605C135.515 867.953 134.685 869.164 133.377 869.867L132.38 868.5C134.363 867.455 135.115 865.199 135.115 863.441V862.953H133.005V861.449H138.025V862.953H136.873V863.441ZM140.974 871.078C144.656 871.078 146.912 872.289 146.912 874.359C146.912 876.43 144.656 877.631 140.974 877.621C137.293 877.631 135.017 876.43 135.017 874.359C135.017 872.289 137.283 871.078 140.974 871.078ZM140.974 872.562C138.425 872.553 136.902 873.188 136.892 874.359C136.902 875.512 138.406 876.156 140.974 876.156C143.552 876.156 145.046 875.512 145.056 874.359C145.046 873.188 143.523 872.553 140.974 872.562Z" fill="white"/>
<path d="M165.156 860.16V870.043H163.281V860.16H165.156ZM153.555 861.176V867.309C156.406 867.279 158.848 867.084 161.484 866.527L161.738 868.051C158.877 868.666 156.23 868.852 153.164 868.852H151.719V861.176H153.555ZM165.156 870.844V877.426H153.652V870.844H165.156ZM155.469 872.328V875.922H163.32V872.328H155.469Z" fill="#ACB6B9"/>
<g clip-path="url(#clip1_65_330)">
<circle cx="222" cy="869" r="7" transform="rotate(-45 222 869)" fill="url(#paint0_linear_65_330)"/>
<circle cx="222" cy="869" r="7" transform="rotate(-45 222 869)" fill="url(#paint1_linear_65_330)"/>
<circle cx="222" cy="868.694" r="5.83333" transform="rotate(45 222 868.694)" fill="#E7CA6D"/>
<circle cx="222" cy="868.694" r="5.83333" transform="rotate(45 222 868.694)" fill="url(#paint2_linear_65_330)"/>
<g filter="url(#filter0_dd_65_330)">
<path d="M222.298 871.461C220.551 871.461 219.21 870.095 219.215 868.32C219.21 866.544 220.551 865.178 222.298 865.178C223.413 865.178 224.357 865.738 224.879 866.599L223.801 867.175C223.484 866.67 222.941 866.348 222.298 866.348C221.253 866.348 220.455 867.204 220.459 868.32C220.455 869.435 221.253 870.292 222.298 870.292C222.941 870.292 223.484 869.97 223.801 869.464L224.879 870.041C224.357 870.901 223.413 871.461 222.298 871.461Z" fill="black"/>
<path d="M222.298 871.461C220.551 871.461 219.21 870.095 219.215 868.32C219.21 866.544 220.551 865.178 222.298 865.178C223.413 865.178 224.357 865.738 224.879 866.599L223.801 867.175C223.484 866.67 222.941 866.348 222.298 866.348C221.253 866.348 220.455 867.204 220.459 868.32C220.455 869.435 221.253 870.292 222.298 870.292C222.941 870.292 223.484 869.97 223.801 869.464L224.879 870.041C224.357 870.901 223.413 871.461 222.298 871.461Z" fill="url(#paint3_linear_65_330)"/>
<path d="M222.298 871.461C220.551 871.461 219.21 870.095 219.215 868.32C219.21 866.544 220.551 865.178 222.298 865.178C223.413 865.178 224.357 865.738 224.879 866.599L223.801 867.175C223.484 866.67 222.941 866.348 222.298 866.348C221.253 866.348 220.455 867.204 220.459 868.32C220.455 869.435 221.253 870.292 222.298 870.292C222.941 870.292 223.484 869.97 223.801 869.464L224.879 870.041C224.357 870.901 223.413 871.461 222.298 871.461Z" fill="black" fill-opacity="0.04"/>
</g>
</g>
<path d="M233.938 865.188C234.828 864.656 235.719 864 236.656 863.188H238V874.5H236.656V864.922H236.594C235.727 865.609 234.82 866.211 233.938 866.672V865.188ZM242.094 872.875L240.813 876.75H239.657L240.719 872.875H242.094ZM246.783 874.719C244.204 874.719 242.595 872.453 242.595 868.844C242.595 865.234 244.204 862.969 246.783 862.969C249.361 862.969 250.97 865.234 250.97 868.844C250.97 872.453 249.361 874.719 246.783 874.719ZM246.783 873.438C248.501 873.438 249.595 871.656 249.595 868.844C249.595 866.031 248.501 864.25 246.783 864.25C245.064 864.25 243.97 866.031 243.97 868.844C243.97 871.656 245.064 873.438 246.783 873.438ZM256.142 874.719C253.564 874.719 251.955 872.453 251.955 868.844C251.955 865.234 253.564 862.969 256.142 862.969C258.721 862.969 260.33 865.234 260.33 868.844C260.33 872.453 258.721 874.719 256.142 874.719ZM256.142 873.438C257.861 873.438 258.955 871.656 258.955 868.844C258.955 866.031 257.861 864.25 256.142 864.25C254.424 864.25 253.33 866.031 253.33 868.844C253.33 871.656 254.424 873.438 256.142 873.438ZM265.503 874.719C262.924 874.719 261.315 872.453 261.315 868.844C261.315 865.234 262.924 862.969 265.503 862.969C268.081 862.969 269.69 865.234 269.69 868.844C269.69 872.453 268.081 874.719 265.503 874.719ZM265.503 873.438C267.221 873.438 268.315 871.656 268.315 868.844C268.315 866.031 267.221 864.25 265.503 864.25C263.784 864.25 262.69 866.031 262.69 868.844C262.69 871.656 263.784 873.438 265.503 873.438Z" fill="#ACB6B9"/>
<defs>
<filter id="filter0_dd_65_330" x="217.654" y="860.512" width="8.78006" height="11.1832" filterUnits="userSpaceOnUse" color-interpolation-filters="sRGB">
<feFlood flood-opacity="0" result="BackgroundImageFix"/>
<feColorMatrix in="SourceAlpha" type="matrix" values="0 0 0 0 0 0 0 0 0 0 0 0 0 0 0 0 0 0 127 0" result="hardAlpha"/>
<feOffset dy="0.233333"/>
<feComposite in2="hardAlpha" operator="out"/>
<feColorMatrix type="matrix" values="0 0 0 0 0.748346 0 0 0 0 0.0476653 0 0 0 0 0.0476653 0 0 0 0.33 0"/>
<feBlend mode="normal" in2="BackgroundImageFix" result="effect1_dropShadow_65_330"/>
<feColorMatrix in="SourceAlpha" type="matrix" values="0 0 0 0 0 0 0 0 0 0 0 0 0 0 0 0 0 0 127 0" result="hardAlpha"/>
<feOffset dy="-3.11111"/>
<feGaussianBlur stdDeviation="0.777778"/>
<feComposite in2="hardAlpha" operator="out"/>
<feColorMatrix type="matrix" values="0 0 0 0 1 0 0 0 0 0.522553 0 0 0 0 0.075909 0 0 0 0.25 0"/>
<feBlend mode="normal" in2="effect1_dropShadow_65_330" result="effect2_dropShadow_65_330"/>
<feBlend mode="normal" in="SourceGraphic" in2="effect2_dropShadow_65_330" result="shape"/>
</filter>
<linearGradient id="paint0_linear_65_330" x1="222" y1="862" x2="222" y2="876" gradientUnits="userSpaceOnUse">
<stop stop-color="#FADB75"/>
<stop offset="1" stop-color="#E1B00F"/>
</linearGradient>
<linearGradient id="paint1_linear_65_330" x1="213.67" y1="869.266" x2="232.449" y2="870.65" gradientUnits="userSpaceOnUse">
<stop stop-color="#FADD84"/>
<stop offset="1" stop-color="#FAB216"/>
</linearGradient>
<linearGradient id="paint2_linear_65_330" x1="222" y1="862.861" x2="222" y2="874.527" gradientUnits="userSpaceOnUse">
<stop stop-color="#FADD84"/>
<stop offset="1" stop-color="#FAB216"/>
</linearGradient>
<linearGradient id="paint3_linear_65_330" x1="219.326" y1="870.916" x2="226.619" y2="863.908" gradientUnits="userSpaceOnUse">
<stop stop-color="#FADD84"/>
<stop offset="1" stop-color="#FAB216"/>
</linearGradient>
<clipPath id="clip0_65_330">
<rect x="51" y="849" width="40" height="40" rx="20" fill="white"/>
</clipPath>
<clipPath id="clip1_65_330">
<rect width="14" height="14" fill="white" transform="translate(215 862)"/>
</clipPath>
</defs>
</svg>
