<svg width="14" height="14" viewBox="0 0 14 14" fill="none" xmlns="http://www.w3.org/2000/svg">
<g clip-path="url(#clip0_69_650)">
<circle cx="7.00008" cy="7" r="7" transform="rotate(-45 7.00008 7)" fill="url(#paint0_linear_69_650)"/>
<circle cx="7.00008" cy="7" r="7" transform="rotate(-45 7.00008 7)" fill="url(#paint1_linear_69_650)"/>
<circle cx="7" cy="6.69392" r="5.83333" transform="rotate(45 7 6.69392)" fill="#E7CA6D"/>
<circle cx="7" cy="6.69392" r="5.83333" transform="rotate(45 7 6.69392)" fill="url(#paint2_linear_69_650)"/>
<g filter="url(#filter0_dd_69_650)">
<path d="M7.29753 9.46121C5.55132 9.46121 4.21034 8.09516 4.21452 6.31972C4.21034 4.54427 5.55132 3.17822 7.29753 3.17822C8.41292 3.17822 9.35704 3.73801 9.87923 4.59858L8.80143 5.17508C8.48394 4.6696 7.94086 4.34793 7.29753 4.34793C6.25315 4.34793 5.45524 5.20432 5.45942 6.31972C5.45524 7.43511 6.25315 8.2915 7.29753 8.2915C7.94086 8.2915 8.48394 7.96984 8.80143 7.46436L9.87923 8.04085C9.35704 8.90142 8.41292 9.46121 7.29753 9.46121Z" fill="black"/>
<path d="M7.29753 9.46121C5.55132 9.46121 4.21034 8.09516 4.21452 6.31972C4.21034 4.54427 5.55132 3.17822 7.29753 3.17822C8.41292 3.17822 9.35704 3.73801 9.87923 4.59858L8.80143 5.17508C8.48394 4.6696 7.94086 4.34793 7.29753 4.34793C6.25315 4.34793 5.45524 5.20432 5.45942 6.31972C5.45524 7.43511 6.25315 8.2915 7.29753 8.2915C7.94086 8.2915 8.48394 7.96984 8.80143 7.46436L9.87923 8.04085C9.35704 8.90142 8.41292 9.46121 7.29753 9.46121Z" fill="url(#paint3_linear_69_650)"/>
<path d="M7.29753 9.46121C5.55132 9.46121 4.21034 8.09516 4.21452 6.31972C4.21034 4.54427 5.55132 3.17822 7.29753 3.17822C8.41292 3.17822 9.35704 3.73801 9.87923 4.59858L8.80143 5.17508C8.48394 4.6696 7.94086 4.34793 7.29753 4.34793C6.25315 4.34793 5.45524 5.20432 5.45942 6.31972C5.45524 7.43511 6.25315 8.2915 7.29753 8.2915C7.94086 8.2915 8.48394 7.96984 8.80143 7.46436L9.87923 8.04085C9.35704 8.90142 8.41292 9.46121 7.29753 9.46121Z" fill="black" fill-opacity="0.04"/>
</g>
</g>
<defs>
<filter id="filter0_dd_69_650" x="2.65441" y="-1.48844" width="8.78006" height="11.1832" filterUnits="userSpaceOnUse" color-interpolation-filters="sRGB">
<feFlood flood-opacity="0" result="BackgroundImageFix"/>
<feColorMatrix in="SourceAlpha" type="matrix" values="0 0 0 0 0 0 0 0 0 0 0 0 0 0 0 0 0 0 127 0" result="hardAlpha"/>
<feOffset dy="0.233333"/>
<feComposite in2="hardAlpha" operator="out"/>
<feColorMatrix type="matrix" values="0 0 0 0 0.748346 0 0 0 0 0.0476653 0 0 0 0 0.0476653 0 0 0 0.33 0"/>
<feBlend mode="normal" in2="BackgroundImageFix" result="effect1_dropShadow_69_650"/>
<feColorMatrix in="SourceAlpha" type="matrix" values="0 0 0 0 0 0 0 0 0 0 0 0 0 0 0 0 0 0 127 0" result="hardAlpha"/>
<feOffset dy="-3.11111"/>
<feGaussianBlur stdDeviation="0.777778"/>
<feComposite in2="hardAlpha" operator="out"/>
<feColorMatrix type="matrix" values="0 0 0 0 1 0 0 0 0 0.522553 0 0 0 0 0.075909 0 0 0 0.25 0"/>
<feBlend mode="normal" in2="effect1_dropShadow_69_650" result="effect2_dropShadow_69_650"/>
<feBlend mode="normal" in="SourceGraphic" in2="effect2_dropShadow_69_650" result="shape"/>
</filter>
<linearGradient id="paint0_linear_69_650" x1="7.00008" y1="0" x2="7.00008" y2="14" gradientUnits="userSpaceOnUse">
<stop stop-color="#FADB75"/>
<stop offset="1" stop-color="#E1B00F"/>
</linearGradient>
<linearGradient id="paint1_linear_69_650" x1="-1.32999" y1="7.26614" x2="17.4493" y2="8.6497" gradientUnits="userSpaceOnUse">
<stop stop-color="#FADD84"/>
<stop offset="1" stop-color="#FAB216"/>
</linearGradient>
<linearGradient id="paint2_linear_69_650" x1="7" y1="0.860582" x2="7" y2="12.5272" gradientUnits="userSpaceOnUse">
<stop stop-color="#FADD84"/>
<stop offset="1" stop-color="#FAB216"/>
</linearGradient>
<linearGradient id="paint3_linear_69_650" x1="4.32617" y1="8.91567" x2="11.6194" y2="1.90841" gradientUnits="userSpaceOnUse">
<stop stop-color="#FADD84"/>
<stop offset="1" stop-color="#FAB216"/>
</linearGradient>
<clipPath id="clip0_69_650">
<rect width="14" height="14" fill="white"/>
</clipPath>
</defs>
</svg>
