<svg width="24" height="27" viewBox="0 0 24 27" fill="none" xmlns="http://www.w3.org/2000/svg">
<path d="M9.2827 4.32518C9.34698 3.64891 9.66109 3.0209 10.1637 2.56384C10.6662 2.10679 11.3211 1.85352 12.0005 1.85352C12.6798 1.85352 13.3347 2.10679 13.8372 2.56384C14.3398 3.0209 14.6539 3.64891 14.7182 4.32518C14.7568 4.76205 14.9002 5.18317 15.136 5.55291C15.3719 5.92266 15.6934 6.23013 16.0732 6.44931C16.4531 6.66849 16.8802 6.79292 17.3184 6.81208C17.7565 6.83123 18.1928 6.74454 18.5904 6.55935C19.2077 6.27909 19.9072 6.23854 20.5527 6.44559C21.1983 6.65263 21.7437 7.09246 22.0828 7.67947C22.4219 8.26649 22.5305 8.95869 22.3875 9.62135C22.2444 10.284 21.8598 10.8697 21.3087 11.2645C20.9498 11.5163 20.6569 11.8509 20.4546 12.2399C20.2523 12.6289 20.1468 13.0608 20.1468 13.4993C20.1468 13.9377 20.2523 14.3697 20.4546 14.7587C20.6569 15.1476 20.9498 15.4822 21.3087 15.734C21.8598 16.1288 22.2444 16.7145 22.3875 17.3772C22.5305 18.0399 22.4219 18.7321 22.0828 19.3191C21.7437 19.9061 21.1983 20.3459 20.5527 20.553C19.9072 20.76 19.2077 20.7194 18.5904 20.4392C18.1928 20.254 17.7565 20.1673 17.3184 20.1865C16.8802 20.2056 16.4531 20.33 16.0732 20.5492C15.6934 20.7684 15.3719 21.0759 15.136 21.4456C14.9002 21.8154 14.7568 22.2365 14.7182 22.6734C14.6539 23.3496 14.3398 23.9776 13.8372 24.4347C13.3347 24.8918 12.6798 25.145 12.0005 25.145C11.3211 25.145 10.6662 24.8918 10.1637 24.4347C9.66109 23.9776 9.34698 23.3496 9.2827 22.6734C9.24413 22.2363 9.10081 21.815 8.86488 21.4452C8.62894 21.0753 8.30734 20.7677 7.92731 20.5485C7.54728 20.3293 7.12001 20.2049 6.68171 20.1859C6.24341 20.1669 5.80697 20.2538 5.40937 20.4392C4.79207 20.7194 4.09258 20.76 3.44703 20.553C2.80149 20.3459 2.25607 19.9061 1.91693 19.3191C1.57779 18.7321 1.4692 18.0399 1.61229 17.3772C1.75537 16.7145 2.1399 16.1288 2.69103 15.734C3.04992 15.4822 3.34289 15.1476 3.54514 14.7587C3.74739 14.3697 3.85298 13.9377 3.85298 13.4993C3.85298 13.0608 3.74739 12.6289 3.54514 12.2399C3.34289 11.8509 3.04992 11.5163 2.69103 11.2645C2.14068 10.8695 1.75683 10.284 1.61409 9.62183C1.47134 8.95962 1.57991 8.26798 1.91868 7.68135C2.25745 7.09472 2.80223 6.65499 3.44714 6.44763C4.09205 6.24027 4.79102 6.28009 5.4082 6.55935C5.80575 6.74454 6.24207 6.83123 6.68022 6.81208C7.11837 6.79292 7.54546 6.66849 7.92533 6.44931C8.3052 6.23013 8.62668 5.92266 8.86254 5.55291C9.09841 5.18317 9.24173 4.76205 9.28037 4.32518M15.4999 13.4999C15.4999 15.4328 13.9329 16.9999 11.9999 16.9999C10.0669 16.9999 8.49987 15.4328 8.49987 13.4999C8.49987 11.5669 10.0669 9.99985 11.9999 9.99985C13.9329 9.99985 15.4999 11.5669 15.4999 13.4999Z" stroke="#ACB6B9" stroke-width="2" stroke-linecap="round" stroke-linejoin="round"/>
</svg>
