<svg width="26" height="28" viewBox="0 0 26 28" fill="none" xmlns="http://www.w3.org/2000/svg">
<path d="M17 27.0001V16.3335C17 15.9798 16.8595 15.6407 16.6095 15.3906C16.3594 15.1406 16.0203 15.0001 15.6667 15.0001H10.3333C9.97971 15.0001 9.64057 15.1406 9.39052 15.3906C9.14048 15.6407 9 15.9798 9 16.3335V27.0001M1 12.3335C0.999907 11.9455 1.08445 11.5623 1.24772 11.2104C1.41099 10.8585 1.64906 10.5465 1.94533 10.2961L11.2787 2.29745C11.76 1.89067 12.3698 1.66748 13 1.66748C13.6302 1.66748 14.24 1.89067 14.7213 2.29745L24.0547 10.2961C24.3509 10.5465 24.589 10.8585 24.7523 11.2104C24.9156 11.5623 25.0001 11.9455 25 12.3335V24.3335C25 25.0407 24.719 25.719 24.219 26.2191C23.7189 26.7192 23.0406 27.0001 22.3333 27.0001H3.66667C2.95942 27.0001 2.28115 26.7192 1.78105 26.2191C1.28095 25.719 1 25.0407 1 24.3335V12.3335Z" stroke="white" stroke-width="1.5" stroke-linecap="round" stroke-linejoin="round"/>
</svg>
