<svg width="28" height="29" viewBox="0 0 28 29" fill="none" xmlns="http://www.w3.org/2000/svg">
<path d="M9.33367 16.8334V17.4167Z" fill="#ACB6B9"/>
<path d="M18.667 16.8334V17.4167Z" fill="#ACB6B9"/>
<path d="M13.1253 19.4584H14.8753L14.0003 20.3334L13.1253 19.4584Z" fill="#ACB6B9"/>
<path d="M9.33367 16.8334V17.4167M18.667 16.8334V17.4167M14.0003 6.3334C14.782 6.3334 15.5753 6.4384 16.3337 6.63673C18.4103 4.3034 22.202 3.3234 23.8237 4.00006C25.457 4.67673 23.3337 12.1667 23.3337 12.1667C23.9987 13.4151 24.5003 14.7801 24.5003 16.1801C24.5003 21.3834 19.7987 25.0001 14.0003 25.0001C8.202 25.0001 3.50034 21.5001 3.50034 16.1801C3.50034 14.7217 4.08367 13.3801 4.667 12.1667C4.667 12.1667 2.462 4.67673 4.08367 4.00006C5.70534 3.3234 9.59034 4.2684 11.667 6.60173C12.4324 6.42569 13.215 6.33569 14.0003 6.3334ZM13.1253 19.4584H14.8753L14.0003 20.3334L13.1253 19.4584Z" stroke="#ACB6B9" stroke-width="2" stroke-linecap="round" stroke-linejoin="round"/>
</svg>
